<?xml version="1.0" encoding="UTF-8" standalone="no"?>
<!-- Created with Inkscape (http://www.inkscape.org/) -->

<svg
   version="1.1"
   id="svg1"
   width="520"
   height="500"
   viewBox="490 255 520 500"
   xmlns="http://www.w3.org/2000/svg"
   xmlns:svg="http://www.w3.org/2000/svg">
  <defs
     id="defs1">
    <linearGradient
       id="gradient1"
       x1="496.5"
       y1="262"
       x2="1001.5"
       y2="751"
       gradientUnits="userSpaceOnUse">
      <stop
         offset="0%"
         style="stop-color:#1D2B64;stop-opacity:1" />
      <stop
         offset="100%"
         style="stop-color:#ad8e97;stop-opacity:1" />
    </linearGradient>
  </defs>
  <g
     id="g1">

    <path
       style="fill:url(#gradient1);stroke:#FFFFFF;stroke-width:0"
       d="m 574.35164,747.17251 c -14.96842,-0.85854 -17.50439,-1.45175 -28.10888,-6.57518 -17.03055,-8.22808 -30.69986,-21.62697 -38.85656,-38.08789 l -6.32422,-12.76281 V 556.40315 423.05967 l 6.59427,-13.34861 c 10.57758,-21.41188 27.54024,-36.67393 50.13604,-45.1096 3.92451,-1.46513 15.02931,-2.68187 31.23562,-3.42243 13.83043,-0.632 25.57659,-1.57945 26.10259,-2.10544 0.526,-0.526 1.4313,-9.51443 2.01179,-19.97428 1.24383,-22.41282 4.21624,-31.864 14.09232,-44.80845 10.81192,-14.17103 24.28988,-23.45207 39.59016,-27.26211 4.65265,-1.1586 30.30656,-1.53972 83.09218,-1.23445 l 76.3615,0.44162 11.88524,5.87071 c 15.73343,7.77154 27.34645,19.32237 34.43658,34.25218 4.92679,10.37441 5.34708,12.41687 6.17922,30.02835 0.52943,11.20491 1.64173,19.92092 2.73263,21.41279 1.53188,2.09499 5.81104,2.68067 25.57237,3.50003 26.08148,1.08142 37.02566,3.70634 50.05384,12.00524 9.80871,6.24812 24.18991,21.75546 29.05284,31.32789 8.35571,16.44775 8.15657,12.74773 8.17576,151.90982 0.017,123.33226 -0.10413,129.12486 -2.8682,137.15879 -6.21906,18.07601 -18.22006,32.4845 -35.66961,42.8252 -17.49705,10.36884 -19.39614,10.57892 -95.62449,10.57892 h -67.74044 v -66.33456 -66.33456 l 4.4,-6.07402 c 2.41999,-3.34073 8.98241,-9.76593 14.58314,-14.27824 27.6629,-22.28702 40.32197,-43.26764 43.90957,-72.77391 2.77288,-22.80539 -1.84045,-47.12536 -12.49382,-65.86355 -2.57109,-4.52227 -10.01374,-13.78357 -16.53925,-20.58068 -13.84386,-14.4201 -26.71233,-21.83085 -38.14649,-21.96797 l -6.93096,-0.0831 -0.74785,43.63152 -0.74785,43.63151 -3.73927,3.99931 c -5.67458,6.0692 -10.10624,7.76175 -23.18347,8.85427 -14.49424,1.21091 -26.91624,-0.9428 -31.89871,-5.53056 -6.78478,-6.24728 -7.72642,-11.05555 -7.89591,-40.31861 -0.0871,-15.0396 -0.59192,-33.40232 -1.12178,-40.80607 l -0.9634,-13.46137 -4.54553,-0.44516 c -2.99902,-0.2937 -8.68498,1.6267 -16.71213,5.6444 -42.41456,21.22916 -63.13134,82.87362 -43.78372,130.28198 6.42107,15.73384 17.69153,29.85776 35.11949,44.0111 8.10882,6.5852 15.96746,13.98895 17.46366,16.45278 2.52211,4.15318 2.72095,9.34299 2.72826,71.20426 l 0.008,66.72457 -7.85247,0.94319 c -9.71228,1.16658 -100.5879,0.82689 -123.02193,-0.45985 z M 836.8808,358.22192 c 1.86644,-2.95435 1.78615,-16.96054 -0.14575,-25.42702 -2.32788,-10.20188 -8.02609,-17.31775 -17.65375,-22.04582 l -8.40789,-4.12906 -62.07186,0.004 c -60.98617,0.004 -62.17898,0.0613 -68.1963,3.27723 -7.84727,4.19393 -14.97459,12.32893 -17.08756,19.50347 -0.91254,3.09853 -1.44771,11.01824 -1.18925,17.59936 l 0.46994,11.96566 5.23497,0.97111 c 2.87924,0.53412 41.77387,0.87065 86.43252,0.74786 70.38349,-0.19353 81.38632,-0.52207 82.61493,-2.46683 z"
       id="path32" />
  </g>
</svg>
